<mxfile host="65bd71144e">
    <diagram id="8Hf6szWtGfQfvbNC-fup" name="Page-1">
        <mxGraphModel dx="1038" dy="122" grid="1" gridSize="10" guides="1" tooltips="1" connect="1" arrows="1" fold="1" page="1" pageScale="1" pageWidth="827" pageHeight="1169" math="0" shadow="0">
            <root>
                <mxCell id="0"/>
                <mxCell id="1" parent="0"/>
                <mxCell id="11" value="Player" style="rounded=0;whiteSpace=wrap;html=1;" parent="1" vertex="1">
                    <mxGeometry x="160" y="280" width="120" height="40" as="geometry"/>
                </mxCell>
                <mxCell id="21" style="edgeStyle=none;html=1;fontSize=100;startArrow=openThin;startFill=0;exitX=0;exitY=1;exitDx=0;exitDy=0;entryX=1;entryY=0;entryDx=0;entryDy=0;" parent="1" source="12" target="20" edge="1">
                    <mxGeometry relative="1" as="geometry"/>
                </mxCell>
                <mxCell id="12" value="Lobby" style="rounded=0;whiteSpace=wrap;html=1;" parent="1" vertex="1">
                    <mxGeometry x="320" y="400" width="120" height="40" as="geometry"/>
                </mxCell>
                <mxCell id="15" style="edgeStyle=none;html=1;fontSize=100;" parent="1" source="11" target="12" edge="1">
                    <mxGeometry relative="1" as="geometry"/>
                </mxCell>
                <mxCell id="14" style="edgeStyle=none;html=1;fontSize=100;" parent="1" source="13" target="12" edge="1">
                    <mxGeometry relative="1" as="geometry"/>
                </mxCell>
                <mxCell id="13" value="Player" style="rounded=0;whiteSpace=wrap;html=1;" parent="1" vertex="1">
                    <mxGeometry x="320" y="280" width="120" height="40" as="geometry"/>
                </mxCell>
                <mxCell id="17" style="edgeStyle=none;html=1;fontSize=100;" parent="1" source="16" target="12" edge="1">
                    <mxGeometry relative="1" as="geometry"/>
                </mxCell>
                <mxCell id="16" value="Player" style="rounded=0;whiteSpace=wrap;html=1;" parent="1" vertex="1">
                    <mxGeometry x="480" y="280" width="120" height="40" as="geometry"/>
                </mxCell>
                <mxCell id="20" value="Game&lt;br&gt;(Instance)" style="rounded=0;whiteSpace=wrap;html=1;" parent="1" vertex="1">
                    <mxGeometry x="80" y="480" width="120" height="40" as="geometry"/>
                </mxCell>
                <mxCell id="22" value="Player" style="rounded=0;whiteSpace=wrap;html=1;" parent="1" vertex="1">
                    <mxGeometry x="-320" y="280" width="120" height="40" as="geometry"/>
                </mxCell>
                <mxCell id="30" style="edgeStyle=none;html=1;fontSize=100;startArrow=openThin;startFill=0;entryX=0;entryY=0;entryDx=0;entryDy=0;" parent="1" source="23" target="20" edge="1">
                    <mxGeometry relative="1" as="geometry">
                        <mxPoint x="70" y="490" as="targetPoint"/>
                    </mxGeometry>
                </mxCell>
                <mxCell id="23" value="Lobby" style="rounded=0;whiteSpace=wrap;html=1;" parent="1" vertex="1">
                    <mxGeometry x="-150" y="400" width="120" height="40" as="geometry"/>
                </mxCell>
                <mxCell id="24" style="edgeStyle=none;html=1;fontSize=100;" parent="1" source="22" target="23" edge="1">
                    <mxGeometry relative="1" as="geometry"/>
                </mxCell>
                <mxCell id="25" style="edgeStyle=none;html=1;fontSize=100;" parent="1" source="26" target="23" edge="1">
                    <mxGeometry relative="1" as="geometry"/>
                </mxCell>
                <mxCell id="26" value="Player" style="rounded=0;whiteSpace=wrap;html=1;" parent="1" vertex="1">
                    <mxGeometry y="280" width="120" height="40" as="geometry"/>
                </mxCell>
                <mxCell id="27" style="edgeStyle=none;html=1;fontSize=100;" parent="1" source="28" target="23" edge="1">
                    <mxGeometry relative="1" as="geometry"/>
                </mxCell>
                <mxCell id="28" value="Player" style="rounded=0;whiteSpace=wrap;html=1;" parent="1" vertex="1">
                    <mxGeometry x="-160" y="280" width="120" height="40" as="geometry"/>
                </mxCell>
                <mxCell id="37" style="edgeStyle=none;html=1;fontSize=100;startArrow=openThin;startFill=0;" parent="1" source="31" target="32" edge="1">
                    <mxGeometry relative="1" as="geometry"/>
                </mxCell>
                <mxCell id="80" value="1-1" style="edgeLabel;html=1;align=center;verticalAlign=middle;resizable=0;points=[];" parent="37" connectable="0" vertex="1">
                    <mxGeometry x="-0.2571" y="-3" relative="1" as="geometry">
                        <mxPoint x="10" y="-13" as="offset"/>
                    </mxGeometry>
                </mxCell>
                <mxCell id="31" value="User" style="rounded=0;whiteSpace=wrap;html=1;" parent="1" vertex="1">
                    <mxGeometry x="-400" y="720" width="120" height="40" as="geometry"/>
                </mxCell>
                <mxCell id="67" style="edgeStyle=none;html=1;entryX=0;entryY=0.5;entryDx=0;entryDy=0;fontSize=100;startArrow=openThin;startFill=0;" parent="1" source="32" target="66" edge="1">
                    <mxGeometry relative="1" as="geometry"/>
                </mxCell>
                <mxCell id="81" value="1-1" style="edgeLabel;html=1;align=center;verticalAlign=middle;resizable=0;points=[];" parent="67" connectable="0" vertex="1">
                    <mxGeometry x="0.2286" y="-3" relative="1" as="geometry">
                        <mxPoint x="-9" y="-13" as="offset"/>
                    </mxGeometry>
                </mxCell>
                <mxCell id="32" value="GUI / Interface" style="rounded=0;whiteSpace=wrap;html=1;" parent="1" vertex="1">
                    <mxGeometry x="-200" y="720" width="120" height="40" as="geometry"/>
                </mxCell>
                <mxCell id="82" style="edgeStyle=none;html=1;fontSize=100;startArrow=openThin;startFill=0;" parent="1" source="48" target="79" edge="1">
                    <mxGeometry relative="1" as="geometry"/>
                </mxCell>
                <mxCell id="48" value="Server" style="rounded=0;whiteSpace=wrap;html=1;" parent="1" vertex="1">
                    <mxGeometry x="240" y="720" width="120" height="40" as="geometry"/>
                </mxCell>
                <mxCell id="76" style="edgeStyle=none;html=1;fontSize=100;startArrow=openThin;startFill=0;dashed=1;strokeWidth=3;" parent="1" source="66" target="48" edge="1">
                    <mxGeometry relative="1" as="geometry">
                        <Array as="points"/>
                    </mxGeometry>
                </mxCell>
                <mxCell id="83" value="1..N - 1" style="edgeLabel;html=1;align=center;verticalAlign=middle;resizable=0;points=[];" parent="76" connectable="0" vertex="1">
                    <mxGeometry x="-0.1857" y="2" relative="1" as="geometry">
                        <mxPoint x="11" y="-8" as="offset"/>
                    </mxGeometry>
                </mxCell>
                <mxCell id="66" value="Game&lt;br&gt;(Client)" style="rounded=0;whiteSpace=wrap;html=1;" parent="1" vertex="1">
                    <mxGeometry y="720" width="120" height="40" as="geometry"/>
                </mxCell>
                <mxCell id="103" style="edgeStyle=none;html=1;fontSize=10;startArrow=openThin;startFill=0;strokeWidth=1;" parent="1" source="79" target="102" edge="1">
                    <mxGeometry relative="1" as="geometry"/>
                </mxCell>
                <mxCell id="79" value="Lobby" style="rounded=0;whiteSpace=wrap;html=1;" parent="1" vertex="1">
                    <mxGeometry x="440" y="720" width="120" height="40" as="geometry"/>
                </mxCell>
                <mxCell id="102" value="Game State" style="rounded=0;whiteSpace=wrap;html=1;" parent="1" vertex="1">
                    <mxGeometry x="640" y="720" width="120" height="40" as="geometry"/>
                </mxCell>
                <mxCell id="113" style="edgeStyle=none;html=1;entryX=0.5;entryY=0;entryDx=0;entryDy=0;fontSize=10;startArrow=openThin;startFill=0;strokeWidth=1;" parent="1" source="105" target="111" edge="1">
                    <mxGeometry relative="1" as="geometry">
                        <Array as="points"/>
                    </mxGeometry>
                </mxCell>
                <mxCell id="115" style="edgeStyle=none;html=1;entryX=0.5;entryY=1;entryDx=0;entryDy=0;fontSize=10;startArrow=openThin;startFill=0;strokeWidth=1;" parent="1" source="105" target="114" edge="1">
                    <mxGeometry relative="1" as="geometry"/>
                </mxCell>
                <mxCell id="105" value="Client instance" style="rounded=0;whiteSpace=wrap;html=1;" parent="1" vertex="1">
                    <mxGeometry x="-400" y="920" width="120" height="40" as="geometry"/>
                </mxCell>
                <mxCell id="110" style="edgeStyle=none;html=1;fontSize=10;startArrow=openThin;startFill=0;strokeWidth=1;" parent="1" source="106" target="109" edge="1">
                    <mxGeometry relative="1" as="geometry"/>
                </mxCell>
                <mxCell id="119" style="edgeStyle=none;html=1;fontSize=10;startArrow=openThin;startFill=0;strokeWidth=1;entryX=0.5;entryY=1;entryDx=0;entryDy=0;" parent="1" source="106" target="117" edge="1">
                    <mxGeometry relative="1" as="geometry">
                        <mxPoint x="-340" y="1110" as="targetPoint"/>
                    </mxGeometry>
                </mxCell>
                <mxCell id="106" value="Game" style="rounded=0;whiteSpace=wrap;html=1;" parent="1" vertex="1">
                    <mxGeometry x="-400" y="1160" width="120" height="40" as="geometry"/>
                </mxCell>
                <mxCell id="109" value="Game state" style="rounded=0;whiteSpace=wrap;html=1;" parent="1" vertex="1">
                    <mxGeometry x="-400" y="1240" width="120" height="40" as="geometry"/>
                </mxCell>
                <mxCell id="111" value="GUI" style="rounded=0;whiteSpace=wrap;html=1;" parent="1" vertex="1">
                    <mxGeometry x="-400" y="1000" width="120" height="40" as="geometry"/>
                </mxCell>
                <mxCell id="114" value="Socket (Communication)" style="rounded=0;whiteSpace=wrap;html=1;" parent="1" vertex="1">
                    <mxGeometry x="-400" y="840" width="120" height="40" as="geometry"/>
                </mxCell>
                <mxCell id="118" style="edgeStyle=none;html=1;entryX=0.5;entryY=1;entryDx=0;entryDy=0;fontSize=10;startArrow=openThin;startFill=0;strokeWidth=1;" parent="1" source="117" target="111" edge="1">
                    <mxGeometry relative="1" as="geometry"/>
                </mxCell>
                <mxCell id="117" value="Lobby" style="rounded=0;whiteSpace=wrap;html=1;" parent="1" vertex="1">
                    <mxGeometry x="-400" y="1080" width="120" height="40" as="geometry"/>
                </mxCell>
                <mxCell id="121" value="User" style="swimlane;startSize=20;" parent="1" vertex="1">
                    <mxGeometry x="520" y="800" width="120" height="120" as="geometry"/>
                </mxCell>
                <mxCell id="122" value="" style="swimlane;startSize=20;" parent="1" vertex="1">
                    <mxGeometry x="707" y="800" width="120" height="120" as="geometry"/>
                </mxCell>
                <mxCell id="123" value="&lt;h1&gt;On random behavior of Bots&lt;/h1&gt;&lt;p&gt;For each possible interaction choose random value. But what if there are actions that have different random values like&lt;/p&gt;&lt;p&gt;-roll a dice =&amp;gt; 1 action =&amp;gt; no random is needed&lt;/p&gt;&lt;p&gt;-stay in prison or buy free =&amp;gt; 2 actions =&amp;gt; random is needed&lt;/p&gt;&lt;p&gt;how do you tell the bot how many possible actions can be performed.&lt;/p&gt;&lt;p&gt;Solution:&lt;/p&gt;&lt;p&gt;max_value property&lt;/p&gt;" style="text;html=1;strokeColor=none;fillColor=none;spacing=5;spacingTop=-20;whiteSpace=wrap;overflow=hidden;rounded=0;" parent="1" vertex="1">
                    <mxGeometry x="930" y="680" width="190" height="370" as="geometry"/>
                </mxCell>
                <mxCell id="127" value="Rooms" style="rounded=0;whiteSpace=wrap;html=1;" parent="1" vertex="1">
                    <mxGeometry x="240" y="800" width="200" height="40" as="geometry"/>
                </mxCell>
                <mxCell id="128" value="" style="rounded=0;whiteSpace=wrap;html=1;" parent="1" vertex="1">
                    <mxGeometry x="240" y="840" width="200" height="80" as="geometry"/>
                </mxCell>
                <mxCell id="126" value="- game_state:&lt;br&gt;- users: user[]" style="text;html=1;align=left;verticalAlign=top;resizable=0;points=[];autosize=1;strokeColor=none;fillColor=none;" parent="1" vertex="1">
                    <mxGeometry x="240" y="840" width="90" height="30" as="geometry"/>
                </mxCell>
                <mxCell id="129" value="" style="rounded=0;whiteSpace=wrap;html=1;" vertex="1" parent="1">
                    <mxGeometry x="960" y="200" width="40" height="40" as="geometry"/>
                </mxCell>
                <mxCell id="131" value="" style="rounded=0;whiteSpace=wrap;html=1;" vertex="1" parent="1">
                    <mxGeometry x="1000" y="200" width="20" height="40" as="geometry"/>
                </mxCell>
                <mxCell id="132" value="" style="rounded=0;whiteSpace=wrap;html=1;" vertex="1" parent="1">
                    <mxGeometry x="1020" y="200" width="20" height="40" as="geometry"/>
                </mxCell>
                <mxCell id="133" value="" style="rounded=0;whiteSpace=wrap;html=1;" vertex="1" parent="1">
                    <mxGeometry x="1040" y="200" width="20" height="40" as="geometry"/>
                </mxCell>
                <mxCell id="134" value="" style="rounded=0;whiteSpace=wrap;html=1;" vertex="1" parent="1">
                    <mxGeometry x="1060" y="200" width="20" height="40" as="geometry"/>
                </mxCell>
                <mxCell id="135" value="" style="rounded=0;whiteSpace=wrap;html=1;" vertex="1" parent="1">
                    <mxGeometry x="1080" y="200" width="20" height="40" as="geometry"/>
                </mxCell>
                <mxCell id="136" value="" style="rounded=0;whiteSpace=wrap;html=1;" vertex="1" parent="1">
                    <mxGeometry x="1100" y="200" width="20" height="40" as="geometry"/>
                </mxCell>
                <mxCell id="137" value="" style="rounded=0;whiteSpace=wrap;html=1;" vertex="1" parent="1">
                    <mxGeometry x="1120" y="200" width="40" height="40" as="geometry"/>
                </mxCell>
                <mxCell id="140" value="" style="rounded=0;whiteSpace=wrap;html=1;" vertex="1" parent="1">
                    <mxGeometry x="960" y="180" width="40" height="20" as="geometry"/>
                </mxCell>
                <mxCell id="144" value="" style="rounded=0;whiteSpace=wrap;html=1;" vertex="1" parent="1">
                    <mxGeometry x="960" y="40" width="40" height="40" as="geometry"/>
                </mxCell>
                <mxCell id="145" value="" style="rounded=0;whiteSpace=wrap;html=1;" vertex="1" parent="1">
                    <mxGeometry x="1000" y="40" width="20" height="40" as="geometry"/>
                </mxCell>
                <mxCell id="146" value="" style="rounded=0;whiteSpace=wrap;html=1;" vertex="1" parent="1">
                    <mxGeometry x="1020" y="40" width="20" height="40" as="geometry"/>
                </mxCell>
                <mxCell id="147" value="" style="rounded=0;whiteSpace=wrap;html=1;" vertex="1" parent="1">
                    <mxGeometry x="1040" y="40" width="20" height="40" as="geometry"/>
                </mxCell>
                <mxCell id="148" value="" style="rounded=0;whiteSpace=wrap;html=1;" vertex="1" parent="1">
                    <mxGeometry x="1060" y="40" width="20" height="40" as="geometry"/>
                </mxCell>
                <mxCell id="149" value="" style="rounded=0;whiteSpace=wrap;html=1;" vertex="1" parent="1">
                    <mxGeometry x="1080" y="40" width="20" height="40" as="geometry"/>
                </mxCell>
                <mxCell id="150" value="" style="rounded=0;whiteSpace=wrap;html=1;" vertex="1" parent="1">
                    <mxGeometry x="1100" y="40" width="20" height="40" as="geometry"/>
                </mxCell>
                <mxCell id="151" value="" style="rounded=0;whiteSpace=wrap;html=1;" vertex="1" parent="1">
                    <mxGeometry x="1120" y="40" width="40" height="40" as="geometry"/>
                </mxCell>
                <mxCell id="152" value="" style="rounded=0;whiteSpace=wrap;html=1;" vertex="1" parent="1">
                    <mxGeometry x="960" y="160" width="40" height="20" as="geometry"/>
                </mxCell>
                <mxCell id="153" value="" style="rounded=0;whiteSpace=wrap;html=1;" vertex="1" parent="1">
                    <mxGeometry x="960" y="140" width="40" height="20" as="geometry"/>
                </mxCell>
                <mxCell id="154" value="" style="rounded=0;whiteSpace=wrap;html=1;" vertex="1" parent="1">
                    <mxGeometry x="960" y="120" width="40" height="20" as="geometry"/>
                </mxCell>
                <mxCell id="155" value="" style="rounded=0;whiteSpace=wrap;html=1;" vertex="1" parent="1">
                    <mxGeometry x="960" y="100" width="40" height="20" as="geometry"/>
                </mxCell>
                <mxCell id="156" value="" style="rounded=0;whiteSpace=wrap;html=1;" vertex="1" parent="1">
                    <mxGeometry x="960" y="80" width="40" height="20" as="geometry"/>
                </mxCell>
                <mxCell id="158" value="" style="rounded=0;whiteSpace=wrap;html=1;" vertex="1" parent="1">
                    <mxGeometry x="1120" y="180" width="40" height="20" as="geometry"/>
                </mxCell>
                <mxCell id="159" value="" style="rounded=0;whiteSpace=wrap;html=1;" vertex="1" parent="1">
                    <mxGeometry x="1120" y="160" width="40" height="20" as="geometry"/>
                </mxCell>
                <mxCell id="160" value="" style="rounded=0;whiteSpace=wrap;html=1;" vertex="1" parent="1">
                    <mxGeometry x="1120" y="140" width="40" height="20" as="geometry"/>
                </mxCell>
                <mxCell id="161" value="" style="rounded=0;whiteSpace=wrap;html=1;" vertex="1" parent="1">
                    <mxGeometry x="1120" y="120" width="40" height="20" as="geometry"/>
                </mxCell>
                <mxCell id="162" value="" style="rounded=0;whiteSpace=wrap;html=1;" vertex="1" parent="1">
                    <mxGeometry x="1120" y="100" width="40" height="20" as="geometry"/>
                </mxCell>
                <mxCell id="163" value="" style="rounded=0;whiteSpace=wrap;html=1;" vertex="1" parent="1">
                    <mxGeometry x="1120" y="80" width="40" height="20" as="geometry"/>
                </mxCell>
                <mxCell id="164" value="&lt;h1&gt;Board&lt;/h1&gt;&lt;p&gt;- height&lt;/p&gt;&lt;p&gt;- width&lt;/p&gt;&lt;p&gt;&lt;br&gt;&lt;/p&gt;" style="text;html=1;strokeColor=none;fillColor=none;spacing=5;spacingTop=-20;whiteSpace=wrap;overflow=hidden;rounded=0;" vertex="1" parent="1">
                    <mxGeometry x="1200" y="40" width="90" height="120" as="geometry"/>
                </mxCell>
                <mxCell id="165" value="Init board" style="rounded=0;whiteSpace=wrap;html=1;" vertex="1" parent="1">
                    <mxGeometry x="1160" y="320" width="80" height="40" as="geometry"/>
                </mxCell>
                <mxCell id="166" value="" style="endArrow=classic;html=1;entryX=0;entryY=0.5;entryDx=0;entryDy=0;" edge="1" parent="1" target="165">
                    <mxGeometry width="50" height="50" relative="1" as="geometry">
                        <mxPoint x="1120" y="340" as="sourcePoint"/>
                        <mxPoint x="1130" y="330" as="targetPoint"/>
                    </mxGeometry>
                </mxCell>
                <mxCell id="167" value="" style="endArrow=classic;html=1;entryX=0;entryY=0.5;entryDx=0;entryDy=0;exitX=1;exitY=0.5;exitDx=0;exitDy=0;" edge="1" parent="1" source="165">
                    <mxGeometry width="50" height="50" relative="1" as="geometry">
                        <mxPoint x="1240" y="339.84" as="sourcePoint"/>
                        <mxPoint x="1280" y="339.84" as="targetPoint"/>
                    </mxGeometry>
                </mxCell>
                <mxCell id="169" value="Field&lt;br&gt;type: {&quot;connector&quot;,&quot;plot&quot;} ,&lt;br&gt;type: {single,street,connection,}" style="text;html=1;strokeColor=none;fillColor=none;align=left;verticalAlign=top;whiteSpace=wrap;rounded=0;" vertex="1" parent="1">
                    <mxGeometry x="880" y="370" width="160" height="60" as="geometry"/>
                </mxCell>
                <mxCell id="190" style="edgeStyle=none;html=1;exitX=1;exitY=0.5;exitDx=0;exitDy=0;entryX=0;entryY=0.5;entryDx=0;entryDy=0;fontSize=11;" edge="1" parent="1" source="171" target="172">
                    <mxGeometry relative="1" as="geometry">
                        <Array as="points">
                            <mxPoint x="1000" y="500"/>
                            <mxPoint x="1000" y="480"/>
                        </Array>
                    </mxGeometry>
                </mxCell>
                <mxCell id="191" style="edgeStyle=none;html=1;exitX=1;exitY=0.5;exitDx=0;exitDy=0;entryX=0;entryY=0.5;entryDx=0;entryDy=0;fontSize=11;" edge="1" parent="1" source="171" target="189">
                    <mxGeometry relative="1" as="geometry">
                        <Array as="points">
                            <mxPoint x="1000" y="500"/>
                            <mxPoint x="1000" y="520"/>
                        </Array>
                    </mxGeometry>
                </mxCell>
                <mxCell id="171" value="Field" style="rounded=1;whiteSpace=wrap;html=1;" vertex="1" parent="1">
                    <mxGeometry x="880" y="490" width="80" height="20" as="geometry"/>
                </mxCell>
                <mxCell id="172" value="has connector" style="rounded=1;whiteSpace=wrap;html=1;" vertex="1" parent="1">
                    <mxGeometry x="1120" y="470" width="80" height="20" as="geometry"/>
                </mxCell>
                <mxCell id="173" value="{} BoardConfig" style="text;html=1;strokeColor=none;fillColor=none;align=left;verticalAlign=middle;whiteSpace=wrap;rounded=0;fontSize=11;" vertex="1" parent="1">
                    <mxGeometry x="870" y="320" width="80" height="20" as="geometry"/>
                </mxCell>
                <mxCell id="174" value="BoardConfig {}" style="text;html=1;strokeColor=none;fillColor=none;align=left;verticalAlign=middle;whiteSpace=wrap;rounded=0;" vertex="1" parent="1">
                    <mxGeometry x="880" y="280" width="90" height="20" as="geometry"/>
                </mxCell>
                <mxCell id="175" value="Board&lt;br&gt;Generator" style="rounded=0;whiteSpace=wrap;html=1;" vertex="1" parent="1">
                    <mxGeometry x="960" y="320" width="80" height="40" as="geometry"/>
                </mxCell>
                <mxCell id="176" value="Board {}" style="text;html=1;strokeColor=none;fillColor=none;align=left;verticalAlign=middle;whiteSpace=wrap;rounded=0;" vertex="1" parent="1">
                    <mxGeometry x="1100" y="320" width="50" height="20" as="geometry"/>
                </mxCell>
                <mxCell id="181" value="" style="endArrow=classic;html=1;entryX=0;entryY=0.5;entryDx=0;entryDy=0;" edge="1" parent="1" target="175">
                    <mxGeometry width="50" height="50" relative="1" as="geometry">
                        <mxPoint x="920" y="339.9599999999999" as="sourcePoint"/>
                        <mxPoint x="950" y="339.96" as="targetPoint"/>
                    </mxGeometry>
                </mxCell>
                <mxCell id="185" value="" style="endArrow=classic;html=1;entryX=0;entryY=0.5;entryDx=0;entryDy=0;exitX=1;exitY=0.5;exitDx=0;exitDy=0;" edge="1" parent="1" source="175">
                    <mxGeometry width="50" height="50" relative="1" as="geometry">
                        <mxPoint x="1050" y="340" as="sourcePoint"/>
                        <mxPoint x="1080.0000000000002" y="339.85" as="targetPoint"/>
                    </mxGeometry>
                </mxCell>
                <mxCell id="186" value="Board {}" style="text;html=1;strokeColor=none;fillColor=none;align=left;verticalAlign=middle;whiteSpace=wrap;rounded=0;" vertex="1" parent="1">
                    <mxGeometry x="1040" y="320" width="50" height="20" as="geometry"/>
                </mxCell>
                <mxCell id="187" value="BoardGraphic" style="text;html=1;strokeColor=none;fillColor=none;align=left;verticalAlign=middle;whiteSpace=wrap;rounded=0;" vertex="1" parent="1">
                    <mxGeometry x="1250" y="320" width="80" height="20" as="geometry"/>
                </mxCell>
                <mxCell id="199" style="edgeStyle=none;html=1;exitX=1;exitY=0.5;exitDx=0;exitDy=0;entryX=0;entryY=0.5;entryDx=0;entryDy=0;fontSize=11;" edge="1" parent="1" source="189" target="196">
                    <mxGeometry relative="1" as="geometry"/>
                </mxCell>
                <mxCell id="189" value="plotType" style="rounded=1;whiteSpace=wrap;html=1;" vertex="1" parent="1">
                    <mxGeometry x="1120" y="510" width="80" height="20" as="geometry"/>
                </mxCell>
                <mxCell id="194" value="type: connector" style="text;html=1;align=left;verticalAlign=middle;resizable=0;points=[];autosize=1;strokeColor=none;fillColor=none;fontSize=11;" vertex="1" parent="1">
                    <mxGeometry x="1000" y="460" width="90" height="20" as="geometry"/>
                </mxCell>
                <mxCell id="195" value="type: plot" style="text;html=1;align=left;verticalAlign=middle;resizable=0;points=[];autosize=1;strokeColor=none;fillColor=none;fontSize=11;" vertex="1" parent="1">
                    <mxGeometry x="1000" y="500" width="60" height="20" as="geometry"/>
                </mxCell>
                <mxCell id="196" value="single" style="rounded=1;whiteSpace=wrap;html=1;" vertex="1" parent="1">
                    <mxGeometry x="1280" y="510" width="80" height="20" as="geometry"/>
                </mxCell>
                <mxCell id="197" value="group" style="rounded=1;whiteSpace=wrap;html=1;" vertex="1" parent="1">
                    <mxGeometry x="1270" y="540" width="80" height="20" as="geometry"/>
                </mxCell>
                <mxCell id="203" value="" style="rounded=0;whiteSpace=wrap;html=1;" vertex="1" parent="1">
                    <mxGeometry x="1440" y="160" width="40" height="40" as="geometry"/>
                </mxCell>
                <mxCell id="204" value="" style="rounded=0;whiteSpace=wrap;html=1;" vertex="1" parent="1">
                    <mxGeometry x="1360" y="160" width="40" height="40" as="geometry"/>
                </mxCell>
                <mxCell id="205" value="" style="rounded=0;whiteSpace=wrap;html=1;" vertex="1" parent="1">
                    <mxGeometry x="1360" y="240" width="40" height="40" as="geometry"/>
                </mxCell>
                <mxCell id="206" value="" style="rounded=0;whiteSpace=wrap;html=1;" vertex="1" parent="1">
                    <mxGeometry x="1440" y="240" width="40" height="40" as="geometry"/>
                </mxCell>
                <mxCell id="207" value="" style="rounded=0;whiteSpace=wrap;html=1;" vertex="1" parent="1">
                    <mxGeometry x="1400" y="240" width="20" height="30" as="geometry"/>
                </mxCell>
                <mxCell id="208" value="" style="rounded=0;whiteSpace=wrap;html=1;" vertex="1" parent="1">
                    <mxGeometry x="1420" y="240" width="20" height="30" as="geometry"/>
                </mxCell>
                <mxCell id="209" value="" style="rounded=0;whiteSpace=wrap;html=1;" vertex="1" parent="1">
                    <mxGeometry x="1360" y="220" width="30" height="20" as="geometry"/>
                </mxCell>
                <mxCell id="210" value="" style="rounded=0;whiteSpace=wrap;html=1;" vertex="1" parent="1">
                    <mxGeometry x="1360" y="200" width="30" height="20" as="geometry"/>
                </mxCell>
                <mxCell id="211" value="" style="rounded=0;whiteSpace=wrap;html=1;" vertex="1" parent="1">
                    <mxGeometry x="1400" y="160" width="20" height="30" as="geometry"/>
                </mxCell>
                <mxCell id="212" value="" style="rounded=0;whiteSpace=wrap;html=1;" vertex="1" parent="1">
                    <mxGeometry x="1420" y="160" width="20" height="30" as="geometry"/>
                </mxCell>
                <mxCell id="213" value="" style="rounded=0;whiteSpace=wrap;html=1;" vertex="1" parent="1">
                    <mxGeometry x="1450" y="220" width="30" height="20" as="geometry"/>
                </mxCell>
                <mxCell id="214" value="" style="rounded=0;whiteSpace=wrap;html=1;" vertex="1" parent="1">
                    <mxGeometry x="1450" y="200" width="30" height="20" as="geometry"/>
                </mxCell>
                <mxCell id="215" value="" style="rounded=0;whiteSpace=wrap;html=1;fontSize=11;fillColor=#d80073;fontColor=#ffffff;strokeColor=#A50040;" vertex="1" parent="1">
                    <mxGeometry x="1390" y="220" width="10" height="20" as="geometry"/>
                </mxCell>
                <mxCell id="216" value="" style="rounded=0;whiteSpace=wrap;html=1;fontSize=11;fillColor=#d80073;fontColor=#ffffff;strokeColor=#A50040;" vertex="1" parent="1">
                    <mxGeometry x="1390" y="200" width="10" height="20" as="geometry"/>
                </mxCell>
                <mxCell id="217" value="" style="rounded=0;whiteSpace=wrap;html=1;fontSize=11;labelBackgroundColor=none;fillColor=#0050ef;fontColor=#ffffff;strokeColor=#001DBC;" vertex="1" parent="1">
                    <mxGeometry x="1440" y="220" width="10" height="20" as="geometry"/>
                </mxCell>
                <mxCell id="218" value="" style="rounded=0;whiteSpace=wrap;html=1;fontSize=11;fillColor=#0050ef;fontColor=#ffffff;strokeColor=#001DBC;" vertex="1" parent="1">
                    <mxGeometry x="1440" y="200" width="10" height="20" as="geometry"/>
                </mxCell>
                <mxCell id="219" value="" style="rounded=0;whiteSpace=wrap;html=1;labelBackgroundColor=none;fontSize=11;fillColor=#008a00;fontColor=#ffffff;strokeColor=#005700;" vertex="1" parent="1">
                    <mxGeometry x="1420" y="190" width="20" height="10" as="geometry"/>
                </mxCell>
                <mxCell id="220" value="" style="rounded=0;whiteSpace=wrap;html=1;labelBackgroundColor=none;fontSize=11;fillColor=#1ba1e2;fontColor=#ffffff;strokeColor=#006EAF;" vertex="1" parent="1">
                    <mxGeometry x="1400" y="270" width="20" height="10" as="geometry"/>
                </mxCell>
                <mxCell id="221" value="" style="rounded=0;whiteSpace=wrap;html=1;labelBackgroundColor=none;fontSize=11;fillColor=#008a00;fontColor=#ffffff;strokeColor=#005700;" vertex="1" parent="1">
                    <mxGeometry x="1400" y="190" width="20" height="10" as="geometry"/>
                </mxCell>
                <mxCell id="222" value="" style="rounded=0;whiteSpace=wrap;html=1;labelBackgroundColor=none;fontSize=11;fillColor=#1ba1e2;fontColor=#ffffff;strokeColor=#006EAF;" vertex="1" parent="1">
                    <mxGeometry x="1420" y="270" width="20" height="10" as="geometry"/>
                </mxCell>
                <mxCell id="223" value="" style="rounded=0;whiteSpace=wrap;html=1;labelBackgroundColor=none;fontSize=11;fillColor=#647687;strokeColor=#314354;fontColor=#ffffff;" vertex="1" parent="1">
                    <mxGeometry x="1520" y="280" width="80" height="150" as="geometry"/>
                </mxCell>
                <mxCell id="225" value="&lt;font style=&quot;font-size: 10px&quot;&gt;- plotName&lt;/font&gt;" style="text;html=1;strokeColor=none;fillColor=none;align=left;verticalAlign=top;whiteSpace=wrap;rounded=0;labelBackgroundColor=none;fontSize=11;" vertex="1" parent="1">
                    <mxGeometry x="1360" y="320" width="80" height="40" as="geometry"/>
                </mxCell>
                <mxCell id="226" value="plotName" style="text;html=1;strokeColor=none;fillColor=none;align=center;verticalAlign=middle;whiteSpace=wrap;rounded=0;labelBackgroundColor=none;fontSize=10;" vertex="1" parent="1">
                    <mxGeometry x="1520" y="410" width="80" height="20" as="geometry"/>
                </mxCell>
                <mxCell id="227" value="price" style="text;html=1;strokeColor=none;fillColor=none;align=center;verticalAlign=middle;whiteSpace=wrap;rounded=0;labelBackgroundColor=none;fontSize=10;" vertex="1" parent="1">
                    <mxGeometry x="1520" y="280" width="80" height="20" as="geometry"/>
                </mxCell>
                <mxCell id="228" value="" style="rounded=0;whiteSpace=wrap;html=1;labelBackgroundColor=none;fontSize=11;fillColor=#a20025;fontColor=#ffffff;strokeColor=#6F0000;" vertex="1" parent="1">
                    <mxGeometry x="1520" y="430" width="80" height="10" as="geometry"/>
                </mxCell>
            </root>
        </mxGraphModel>
    </diagram>
</mxfile>